<?xml version="1.0" encoding="UTF-8" standalone="no"?>
<!DOCTYPE svg PUBLIC "-//W3C//DTD SVG 1.1//EN"
 "http://www.w3.org/Graphics/SVG/1.1/DTD/svg11.dtd">
<!-- Generated by graphviz version 2.38.0 (20140413.2041)
 -->
<!-- Title: nfsp Pages: 1 -->
<svg width="1107pt" height="358pt"
 viewBox="0.00 0.00 1107.00 358.00" xmlns="http://www.w3.org/2000/svg" xmlns:xlink="http://www.w3.org/1999/xlink">
<g id="graph0" class="graph" transform="scale(1 1) rotate(0) translate(4 354)">
<title>nfsp</title>
<polygon fill="white" stroke="none" points="-4,4 -4,-354 1103,-354 1103,4 -4,4"/>
<g id="clust1" class="cluster"><title>cluster_0</title>
<polygon fill="none" stroke="black" points="8,-8 8,-226 667,-226 667,-8 8,-8"/>
<text text-anchor="middle" x="337.5" y="-15.8" font-family="Times,serif" font-size="14.00">WireCellToolkit art module in larwirecell</text>
</g>
<g id="clust2" class="cluster"><title>cluster_1</title>
<polygon fill="none" stroke="black" points="675,-9 675,-226 867,-226 867,-9 675,-9"/>
<text text-anchor="middle" x="771" y="-16.8" font-family="Times,serif" font-size="14.00">CellTree module in uboonecode</text>
</g>
<g id="clust3" class="cluster"><title>cluster_2</title>
<polygon fill="none" stroke="black" points="887,-119 887,-226 1091,-226 1091,-119 887,-119"/>
<text text-anchor="middle" x="989" y="-156.8" font-family="Times,serif" font-size="14.00">Format data to suit uB</text>
<text text-anchor="middle" x="989" y="-141.8" font-family="Times,serif" font-size="14.00">(module in larwirecell)</text>
<text text-anchor="middle" x="989" y="-126.8" font-family="Times,serif" font-size="14.00">((although, this is really generic!))</text>
</g>
<!-- event -->
<g id="node1" class="node"><title>event</title>
<ellipse fill="none" stroke="blue" cx="443" cy="-332" rx="108.581" ry="18"/>
<text text-anchor="middle" x="443" y="-328.3" font-family="fixed" font-size="14.00" fill="blue"> &#160;&#160;&#160;&#160;&#160;&#160;&#160;&#160;art::Event &#160;&#160;&#160;&#160;&#160;&#160;&#160;&#160;</text>
</g>
<!-- event2 -->
<g id="node2" class="node"><title>event2</title>
<ellipse fill="none" stroke="blue" cx="700" cy="-332" rx="108.581" ry="18"/>
<text text-anchor="middle" x="700" y="-328.3" font-family="fixed" font-size="14.00" fill="blue"> &#160;&#160;&#160;&#160;&#160;&#160;&#160;&#160;art::Event &#160;&#160;&#160;&#160;&#160;&#160;&#160;&#160;</text>
</g>
<!-- event&#45;&gt;event2 -->
<g id="edge1" class="edge"><title>event&#45;&gt;event2</title>
<path fill="none" stroke="blue" d="M551.673,-332C561.492,-332 571.311,-332 581.13,-332"/>
<polygon fill="blue" stroke="blue" points="581.362,-335.5 591.362,-332 581.362,-328.5 581.362,-335.5"/>
</g>
<!-- input -->
<g id="node5" class="node"><title>input</title>
<polygon fill="none" stroke="blue" points="130,-217 16,-217 16,-181 130,-181 130,-217"/>
<text text-anchor="middle" x="73" y="-195.3" font-family="Times,serif" font-size="14.00" fill="red">RawFrameSource</text>
</g>
<!-- event&#45;&gt;input -->
<g id="edge3" class="edge"><title>event:w&#45;&gt;input:n</title>
<path fill="none" stroke="blue" d="M333,-332C273.239,-332 93.3959,-286.316 74.5943,-227.873"/>
<polygon fill="blue" stroke="blue" points="78.0494,-227.314 73,-218 71.1389,-228.43 78.0494,-227.314"/>
<text text-anchor="middle" x="206.5" y="-262.3" font-family="Times,serif" font-size="14.00" fill="blue">raw::RawDigit</text>
</g>
<!-- event3 -->
<g id="node3" class="node"><title>event3</title>
<ellipse fill="none" stroke="blue" cx="953" cy="-332" rx="108.581" ry="18"/>
<text text-anchor="middle" x="953" y="-328.3" font-family="fixed" font-size="14.00" fill="blue"> &#160;&#160;&#160;&#160;&#160;&#160;&#160;&#160;art::Event &#160;&#160;&#160;&#160;&#160;&#160;&#160;&#160;</text>
</g>
<!-- event2&#45;&gt;event3 -->
<g id="edge2" class="edge"><title>event2&#45;&gt;event3</title>
<path fill="none" stroke="blue" d="M808.711,-332C817.126,-332 825.541,-332 833.955,-332"/>
<polygon fill="blue" stroke="blue" points="834.22,-335.5 844.22,-332 834.22,-328.5 834.22,-335.5"/>
</g>
<!-- ctm -->
<g id="node13" class="node"><title>ctm</title>
<polygon fill="none" stroke="blue" points="752,-218 694,-218 694,-180 752,-180 752,-218"/>
<text text-anchor="middle" x="723" y="-202.8" font-family="Times,serif" font-size="14.00" fill="blue">celltree</text>
<text text-anchor="middle" x="723" y="-187.8" font-family="Times,serif" font-size="14.00" fill="blue">module</text>
</g>
<!-- event2&#45;&gt;ctm -->
<g id="edge14" class="edge"><title>event2&#45;&gt;ctm</title>
<path fill="none" stroke="blue" d="M703.007,-313.874C706.817,-292.174 713.437,-254.469 718.009,-228.425"/>
<polygon fill="blue" stroke="blue" points="721.488,-228.851 719.77,-218.396 714.594,-227.64 721.488,-228.851"/>
<text text-anchor="middle" x="768" y="-284.8" font-family="Times,serif" font-size="14.00" fill="blue">V&#45;plane raw digits</text>
<text text-anchor="middle" x="768" y="-269.8" font-family="Times,serif" font-size="14.00" fill="blue"> signal</text>
<text text-anchor="middle" x="768" y="-254.8" font-family="Times,serif" font-size="14.00" fill="blue">bad ch</text>
<text text-anchor="middle" x="768" y="-239.8" font-family="Times,serif" font-size="14.00" fill="blue">PMT info</text>
</g>
<!-- butcher -->
<g id="node15" class="node"><title>butcher</title>
<polygon fill="none" stroke="blue" points="998.5,-218 939.5,-218 939.5,-180 998.5,-180 998.5,-218"/>
<text text-anchor="middle" x="969" y="-202.8" font-family="Times,serif" font-size="14.00" fill="blue">rawdata</text>
<text text-anchor="middle" x="969" y="-187.8" font-family="Times,serif" font-size="14.00" fill="blue">butcher</text>
</g>
<!-- event3&#45;&gt;butcher -->
<g id="edge16" class="edge"><title>event3&#45;&gt;butcher</title>
<path fill="none" stroke="blue" d="M931.557,-314.127C926.475,-308.916 921.739,-302.751 919,-296 908.974,-271.29 906.843,-259.734 919,-236 921.944,-230.252 926.281,-225.213 931.189,-220.868"/>
<polygon fill="blue" stroke="blue" points="933.5,-223.505 939.255,-214.61 929.209,-217.975 933.5,-223.505"/>
<text text-anchor="middle" x="942.5" y="-269.8" font-family="Times,serif" font-size="14.00" fill="blue"> full raw</text>
<text text-anchor="middle" x="942.5" y="-254.8" font-family="Times,serif" font-size="14.00" fill="blue">full sig</text>
</g>
<!-- ndbcfg -->
<g id="node4" class="node"><title>ndbcfg</title>
<ellipse fill="none" stroke="red" cx="351" cy="-58" rx="53.8905" ry="18"/>
<text text-anchor="middle" x="351" y="-54.3" font-family="Times,serif" font-size="14.00" fill="red">static config</text>
</g>
<!-- nfch -->
<g id="node6" class="node"><title>nfch</title>
<polygon fill="none" stroke="red" points="256.5,-218 165.5,-218 165.5,-180 256.5,-180 256.5,-218"/>
<text text-anchor="middle" x="211" y="-202.8" font-family="Times,serif" font-size="14.00" fill="red">channel noise</text>
<text text-anchor="middle" x="211" y="-187.8" font-family="Times,serif" font-size="14.00" fill="red">filters</text>
</g>
<!-- input&#45;&gt;nfch -->
<g id="edge4" class="edge"><title>input&#45;&gt;nfch</title>
<path fill="none" stroke="red" d="M130.141,-199C138.449,-199 146.758,-199 155.066,-199"/>
<polygon fill="red" stroke="red" points="155.201,-202.5 165.201,-199 155.201,-195.5 155.201,-202.5"/>
</g>
<!-- nfpm -->
<g id="node7" class="node"><title>nfpm</title>
<polygon fill="none" stroke="red" points="369.5,-218 292.5,-218 292.5,-180 369.5,-180 369.5,-218"/>
<text text-anchor="middle" x="331" y="-202.8" font-family="Times,serif" font-size="14.00" fill="red">PMT noise</text>
<text text-anchor="middle" x="331" y="-187.8" font-family="Times,serif" font-size="14.00" fill="red">filter</text>
</g>
<!-- nfch&#45;&gt;nfpm -->
<g id="edge5" class="edge"><title>nfch&#45;&gt;nfpm</title>
<path fill="none" stroke="red" d="M256.938,-199C265.302,-199 273.666,-199 282.03,-199"/>
<polygon fill="red" stroke="red" points="282.233,-202.5 292.233,-199 282.233,-195.5 282.233,-202.5"/>
</g>
<!-- chndb -->
<g id="node12" class="node"><title>chndb</title>
<polygon fill="none" stroke="blue" points="261.5,-76 160.5,-76 160.5,-40 261.5,-40 261.5,-76"/>
<text text-anchor="middle" x="211" y="-54.3" font-family="Times,serif" font-size="14.00" fill="red">chan. noise DB</text>
</g>
<!-- nfch&#45;&gt;chndb -->
<g id="edge12" class="edge"><title>nfch&#45;&gt;chndb</title>
<path fill="none" stroke="red" d="M211,-169.478C211,-141.462 211,-99.6278 211,-76.3015"/>
<polygon fill="red" stroke="red" points="207.5,-169.828 211,-179.828 214.5,-169.828 207.5,-169.828"/>
</g>
<!-- rfs -->
<g id="node8" class="node"><title>rfs</title>
<polygon fill="none" stroke="blue" points="459,-218 405,-218 405,-180 459,-180 459,-218"/>
<text text-anchor="middle" x="432" y="-202.8" font-family="Times,serif" font-size="14.00" fill="red">frame</text>
<text text-anchor="middle" x="432" y="-187.8" font-family="Times,serif" font-size="14.00" fill="red">saver</text>
</g>
<!-- nfpm&#45;&gt;rfs -->
<g id="edge6" class="edge"><title>nfpm&#45;&gt;rfs</title>
<path fill="none" stroke="red" d="M369.664,-199C377.973,-199 386.283,-199 394.592,-199"/>
<polygon fill="red" stroke="red" points="394.728,-202.5 404.728,-199 394.728,-195.5 394.728,-202.5"/>
</g>
<!-- rfs&#45;&gt;event -->
<g id="edge9" class="edge"><title>rfs:n&#45;&gt;event:s</title>
<path fill="none" stroke="blue" d="M432,-219C432,-257.852 441.191,-269.538 442.77,-303.721"/>
<polygon fill="blue" stroke="blue" points="439.277,-304.081 443,-314 446.276,-303.924 439.277,-304.081"/>
<text text-anchor="middle" x="483.5" y="-269.8" font-family="Times,serif" font-size="14.00" fill="blue">raw::RawDigit</text>
<text text-anchor="middle" x="483.5" y="-254.8" font-family="Times,serif" font-size="14.00" fill="blue">bad ch</text>
</g>
<!-- sp -->
<g id="node9" class="node"><title>sp</title>
<polygon fill="none" stroke="red" points="569,-218 495,-218 495,-180 569,-180 569,-218"/>
<text text-anchor="middle" x="532" y="-202.8" font-family="Times,serif" font-size="14.00" fill="red">signal</text>
<text text-anchor="middle" x="532" y="-187.8" font-family="Times,serif" font-size="14.00" fill="red">processing</text>
</g>
<!-- rfs&#45;&gt;sp -->
<g id="edge7" class="edge"><title>rfs&#45;&gt;sp</title>
<path fill="none" stroke="red" d="M459.344,-199C467.751,-199 476.158,-199 484.565,-199"/>
<polygon fill="red" stroke="red" points="484.82,-202.5 494.82,-199 484.82,-195.5 484.82,-202.5"/>
</g>
<!-- cfs -->
<g id="node10" class="node"><title>cfs</title>
<polygon fill="none" stroke="blue" points="659,-218 605,-218 605,-180 659,-180 659,-218"/>
<text text-anchor="middle" x="632" y="-202.8" font-family="Times,serif" font-size="14.00" fill="red">frame</text>
<text text-anchor="middle" x="632" y="-187.8" font-family="Times,serif" font-size="14.00" fill="red">saver</text>
</g>
<!-- sp&#45;&gt;cfs -->
<g id="edge8" class="edge"><title>sp&#45;&gt;cfs</title>
<path fill="none" stroke="red" d="M569.109,-199C577.703,-199 586.296,-199 594.889,-199"/>
<polygon fill="red" stroke="red" points="594.977,-202.5 604.977,-199 594.977,-195.5 594.977,-202.5"/>
</g>
<!-- cfs&#45;&gt;event -->
<g id="edge10" class="edge"><title>cfs:n&#45;&gt;event:se</title>
<path fill="none" stroke="blue" d="M632,-219C632,-233.378 540.947,-289.747 528,-296 503.705,-307.732 487.322,-296.022 469,-307.517"/>
<polygon fill="blue" stroke="blue" points="466.565,-304.985 461,-314 470.973,-310.423 466.565,-304.985"/>
<text text-anchor="middle" x="658.5" y="-269.8" font-family="Times,serif" font-size="14.00" fill="blue">recob::Wire x2</text>
<text text-anchor="middle" x="658.5" y="-254.8" font-family="Times,serif" font-size="14.00" fill="blue">+ thresholds</text>
</g>
<!-- svcs -->
<g id="node11" class="node"><title>svcs</title>
<polygon fill="none" stroke="blue" points="125,-77 63,-77 63,-39 125,-39 125,-77"/>
<text text-anchor="middle" x="94" y="-61.8" font-family="Times,serif" font-size="14.00" fill="blue">LArSoft</text>
<text text-anchor="middle" x="94" y="-46.8" font-family="Times,serif" font-size="14.00" fill="blue">services</text>
</g>
<!-- svcs&#45;&gt;chndb -->
<g id="edge11" class="edge"><title>svcs&#45;&gt;chndb</title>
<path fill="none" stroke="blue" d="M125.078,-58C133.43,-58 141.781,-58 150.133,-58"/>
<polygon fill="blue" stroke="blue" points="150.32,-61.5001 160.32,-58 150.319,-54.5001 150.32,-61.5001"/>
</g>
<!-- chndb&#45;&gt;ndbcfg -->
<g id="edge13" class="edge"><title>chndb&#45;&gt;ndbcfg</title>
<path fill="none" stroke="red" d="M271.783,-58C280.143,-58 288.503,-58 296.863,-58"/>
<polygon fill="red" stroke="red" points="271.586,-54.5001 261.586,-58 271.586,-61.5001 271.586,-54.5001"/>
</g>
<!-- celltree -->
<g id="node14" class="node"><title>celltree</title>
<ellipse fill="none" stroke="black" cx="734" cy="-58" rx="50.8918" ry="18"/>
<text text-anchor="middle" x="734" y="-54.3" font-family="Times,serif" font-size="14.00">celltree file</text>
</g>
<!-- ctm&#45;&gt;celltree -->
<g id="edge15" class="edge"><title>ctm&#45;&gt;celltree</title>
<path fill="none" stroke="black" d="M724.438,-179.828C726.32,-156.051 729.635,-114.164 731.824,-86.4935"/>
<polygon fill="black" stroke="black" points="735.331,-86.5465 732.631,-76.3015 728.353,-85.9942 735.331,-86.5465"/>
</g>
<!-- butcher&#45;&gt;event3 -->
<g id="edge17" class="edge"><title>butcher&#45;&gt;event3</title>
<path fill="none" stroke="blue" d="M970.169,-218.243C971.012,-237.701 971.225,-269.327 966,-296 965.469,-298.709 964.755,-301.486 963.934,-304.233"/>
<polygon fill="blue" stroke="blue" points="960.56,-303.28 960.622,-313.875 967.181,-305.554 960.56,-303.28"/>
<text text-anchor="middle" x="1026" y="-277.3" font-family="Times,serif" font-size="14.00" fill="blue"> truncated raw</text>
<text text-anchor="middle" x="1026" y="-262.3" font-family="Times,serif" font-size="14.00" fill="blue">truncated+scaled sig</text>
<text text-anchor="middle" x="1026" y="-247.3" font-family="Times,serif" font-size="14.00" fill="blue"> raw&#45;sig assns</text>
</g>
<!-- artcfg -->
<g id="node16" class="node"><title>artcfg</title>
<polygon fill="none" stroke="black" points="1030,-92 908,-92 908,-24 1030,-24 1030,-92"/>
<text text-anchor="middle" x="969" y="-76.8" font-family="Times,serif" font-size="14.00">art job cfg notes:</text>
<text text-anchor="middle" x="969" y="-61.8" font-family="Times,serif" font-size="14.00">drop full raw digits</text>
<text text-anchor="middle" x="969" y="-46.8" font-family="Times,serif" font-size="14.00">drop full signals</text>
<text text-anchor="middle" x="969" y="-31.8" font-family="Times,serif" font-size="14.00">(wiener + gauss)</text>
</g>
<!-- butcher&#45;&gt;artcfg -->
</g>
</svg>
