<?xml version="1.0" encoding="UTF-8" standalone="no"?>
<!DOCTYPE svg PUBLIC "-//W3C//DTD SVG 1.1//EN"
 "http://www.w3.org/Graphics/SVG/1.1/DTD/svg11.dtd">
<!-- Generated by graphviz version 2.38.0 (20140413.2041)
 -->
<!-- Title: pgraph Pages: 1 -->
<svg width="1148pt" height="74pt"
 viewBox="0.00 0.00 1148.00 74.00" xmlns="http://www.w3.org/2000/svg" xmlns:xlink="http://www.w3.org/1999/xlink">
<g id="graph0" class="graph" transform="scale(1 1) rotate(0) translate(4 70)">
<title>pgraph</title>
<polygon fill="white" stroke="none" points="-4,4 -4,-70 1144,-70 1144,4 -4,4"/>
<!-- ChannelSelector -->
<g id="node1" class="node"><title>ChannelSelector</title>
<polygon fill="none" stroke="black" points="334,-29.5 334,-65.5 486,-65.5 486,-29.5 334,-29.5"/>
<text text-anchor="middle" x="345.5" y="-43.8" font-family="Times,serif" font-size="14.00">0</text>
<polyline fill="none" stroke="black" points="357,-29.5 357,-65.5 "/>
<text text-anchor="middle" x="410" y="-43.8" font-family="Times,serif" font-size="14.00">ChannelSelector</text>
<polyline fill="none" stroke="black" points="463,-29.5 463,-65.5 "/>
<text text-anchor="middle" x="474.5" y="-43.8" font-family="Times,serif" font-size="14.00">0</text>
</g>
<!-- L1SPFilter -->
<g id="node5" class="node"><title>L1SPFilter</title>
<polygon fill="none" stroke="black" points="522,-29.5 522,-65.5 644,-65.5 644,-29.5 522,-29.5"/>
<text text-anchor="middle" x="533.5" y="-43.8" font-family="Times,serif" font-size="14.00">0</text>
<polyline fill="none" stroke="black" points="545,-29.5 545,-65.5 "/>
<text text-anchor="middle" x="583" y="-43.8" font-family="Times,serif" font-size="14.00">L1SPFilter</text>
<polyline fill="none" stroke="black" points="621,-29.5 621,-65.5 "/>
<text text-anchor="middle" x="632.5" y="-43.8" font-family="Times,serif" font-size="14.00">0</text>
</g>
<!-- ChannelSelector&#45;&gt;L1SPFilter -->
<g id="edge4" class="edge"><title>ChannelSelector:out0&#45;&gt;L1SPFilter:in0</title>
<path fill="none" stroke="black" d="M486,-47.5C498,-47.5 503.25,-47.5 511.875,-47.5"/>
<polygon fill="black" stroke="black" points="512,-51.0001 522,-47.5 512,-44.0001 512,-51.0001"/>
</g>
<!-- DumpFrames -->
<g id="node2" class="node"><title>DumpFrames</title>
<polygon fill="none" stroke="black" points="1025,-5.5 1025,-41.5 1140,-41.5 1140,-5.5 1025,-5.5"/>
<text text-anchor="middle" x="1036.5" y="-19.8" font-family="Times,serif" font-size="14.00">0</text>
<polyline fill="none" stroke="black" points="1048,-5.5 1048,-41.5 "/>
<text text-anchor="middle" x="1094" y="-19.8" font-family="Times,serif" font-size="14.00">DumpFrames</text>
</g>
<!-- FrameMerger -->
<g id="node3" class="node"><title>FrameMerger</title>
<polygon fill="none" stroke="black" points="680,-0.5 680,-46.5 818,-46.5 818,-0.5 680,-0.5"/>
<text text-anchor="middle" x="691.5" y="-31.3" font-family="Times,serif" font-size="14.00">0</text>
<polyline fill="none" stroke="black" points="680,-23.5 703,-23.5 "/>
<text text-anchor="middle" x="691.5" y="-8.3" font-family="Times,serif" font-size="14.00">1</text>
<polyline fill="none" stroke="black" points="703,-0.5 703,-46.5 "/>
<text text-anchor="middle" x="749" y="-19.8" font-family="Times,serif" font-size="14.00">FrameMerger</text>
<polyline fill="none" stroke="black" points="795,-0.5 795,-46.5 "/>
<text text-anchor="middle" x="806.5" y="-19.8" font-family="Times,serif" font-size="14.00">0</text>
</g>
<!-- MagnifySink -->
<g id="node6" class="node"><title>MagnifySink</title>
<polygon fill="none" stroke="black" points="854,-5.5 854,-41.5 989,-41.5 989,-5.5 854,-5.5"/>
<text text-anchor="middle" x="865.5" y="-19.8" font-family="Times,serif" font-size="14.00">0</text>
<polyline fill="none" stroke="black" points="877,-5.5 877,-41.5 "/>
<text text-anchor="middle" x="921.5" y="-19.8" font-family="Times,serif" font-size="14.00">MagnifySink</text>
<polyline fill="none" stroke="black" points="966,-5.5 966,-41.5 "/>
<text text-anchor="middle" x="977.5" y="-19.8" font-family="Times,serif" font-size="14.00">0</text>
</g>
<!-- FrameMerger&#45;&gt;MagnifySink -->
<g id="edge6" class="edge"><title>FrameMerger:out0&#45;&gt;MagnifySink:in0</title>
<path fill="none" stroke="black" d="M818,-23.5C830,-23.5 835.25,-23.5 843.875,-23.5"/>
<polygon fill="black" stroke="black" points="844,-27.0001 854,-23.5 844,-20.0001 844,-27.0001"/>
</g>
<!-- FrameSplitter -->
<g id="node4" class="node"><title>FrameSplitter</title>
<polygon fill="none" stroke="black" points="160,-0.5 160,-46.5 298,-46.5 298,-0.5 160,-0.5"/>
<text text-anchor="middle" x="171.5" y="-19.8" font-family="Times,serif" font-size="14.00">0</text>
<polyline fill="none" stroke="black" points="183,-0.5 183,-46.5 "/>
<text text-anchor="middle" x="229" y="-19.8" font-family="Times,serif" font-size="14.00">FrameSplitter</text>
<polyline fill="none" stroke="black" points="275,-0.5 275,-46.5 "/>
<text text-anchor="middle" x="286.5" y="-31.3" font-family="Times,serif" font-size="14.00">0</text>
<polyline fill="none" stroke="black" points="275,-23.5 298,-23.5 "/>
<text text-anchor="middle" x="286.5" y="-8.3" font-family="Times,serif" font-size="14.00">1</text>
</g>
<!-- FrameSplitter&#45;&gt;ChannelSelector -->
<g id="edge3" class="edge"><title>FrameSplitter:out0&#45;&gt;ChannelSelector:in0</title>
<path fill="none" stroke="black" d="M298,-35.5C310.781,-35.5 315.179,-42.3914 323.9,-45.7294"/>
<polygon fill="black" stroke="black" points="323.546,-49.2206 334,-47.5 324.755,-42.3257 323.546,-49.2206"/>
</g>
<!-- FrameSplitter&#45;&gt;FrameMerger -->
<g id="edge2" class="edge"><title>FrameSplitter:out1&#45;&gt;FrameMerger:in1</title>
<path fill="none" stroke="black" d="M298,-11.5C464.296,-11.5 508.428,-11.5 669.713,-11.5"/>
<polygon fill="black" stroke="black" points="670,-15.0001 680,-11.5 670,-8.0001 670,-15.0001"/>
</g>
<!-- L1SPFilter&#45;&gt;FrameMerger -->
<g id="edge5" class="edge"><title>L1SPFilter:out0&#45;&gt;FrameMerger:in0</title>
<path fill="none" stroke="black" d="M644,-47.5C656.781,-47.5 661.179,-40.6086 669.9,-37.2706"/>
<polygon fill="black" stroke="black" points="670.755,-40.6743 680,-35.5 669.546,-33.7794 670.755,-40.6743"/>
</g>
<!-- MagnifySink&#45;&gt;DumpFrames -->
<g id="edge7" class="edge"><title>MagnifySink:out0&#45;&gt;DumpFrames:in0</title>
<path fill="none" stroke="black" d="M989,-23.5C1001,-23.5 1006.25,-23.5 1014.88,-23.5"/>
<polygon fill="black" stroke="black" points="1015,-27.0001 1025,-23.5 1015,-20.0001 1015,-27.0001"/>
</g>
<!-- MagnifySource -->
<g id="node7" class="node"><title>MagnifySource</title>
<polygon fill="none" stroke="black" points="0,-5.5 0,-41.5 124,-41.5 124,-5.5 0,-5.5"/>
<text text-anchor="middle" x="50.5" y="-19.8" font-family="Times,serif" font-size="14.00">MagnifySource</text>
<polyline fill="none" stroke="black" points="101,-5.5 101,-41.5 "/>
<text text-anchor="middle" x="112.5" y="-19.8" font-family="Times,serif" font-size="14.00">0</text>
</g>
<!-- MagnifySource&#45;&gt;FrameSplitter -->
<g id="edge1" class="edge"><title>MagnifySource:out0&#45;&gt;FrameSplitter:in0</title>
<path fill="none" stroke="black" d="M124,-23.5C136,-23.5 141.25,-23.5 149.875,-23.5"/>
<polygon fill="black" stroke="black" points="150,-27.0001 160,-23.5 150,-20.0001 150,-27.0001"/>
</g>
</g>
</svg>
