<?xml version="1.0" encoding="UTF-8" standalone="no"?>
<!DOCTYPE svg PUBLIC "-//W3C//DTD SVG 1.1//EN"
 "http://www.w3.org/Graphics/SVG/1.1/DTD/svg11.dtd">
<!-- Generated by graphviz version 2.38.0 (20140413.2041)
 -->
<!-- Title: pgraph Pages: 1 -->
<svg width="2570pt" height="96pt"
 viewBox="0.00 0.00 2570.00 96.25" xmlns="http://www.w3.org/2000/svg" xmlns:xlink="http://www.w3.org/1999/xlink">
<g id="graph0" class="graph" transform="scale(1 1) rotate(0) translate(4 92.2542)">
<title>pgraph</title>
<polygon fill="white" stroke="none" points="-4,4 -4,-92.2542 2566,-92.2542 2566,4 -4,4"/>
<!-- ChannelSelector -->
<g id="node1" class="node"><title>ChannelSelector</title>
<polygon fill="none" stroke="black" points="1738,-44.7542 1738,-80.7542 1890,-80.7542 1890,-44.7542 1738,-44.7542"/>
<text text-anchor="middle" x="1749.5" y="-59.0542" font-family="Times,serif" font-size="14.00">0</text>
<polyline fill="none" stroke="black" points="1761,-44.7542 1761,-80.7542 "/>
<text text-anchor="middle" x="1814" y="-59.0542" font-family="Times,serif" font-size="14.00">ChannelSelector</text>
<polyline fill="none" stroke="black" points="1867,-44.7542 1867,-80.7542 "/>
<text text-anchor="middle" x="1878.5" y="-59.0542" font-family="Times,serif" font-size="14.00">0</text>
</g>
<!-- L1SPFilter -->
<g id="node7" class="node"><title>L1SPFilter</title>
<polygon fill="none" stroke="black" points="1926,-42.7542 1926,-78.7542 2048,-78.7542 2048,-42.7542 1926,-42.7542"/>
<text text-anchor="middle" x="1937.5" y="-57.0542" font-family="Times,serif" font-size="14.00">0</text>
<polyline fill="none" stroke="black" points="1949,-42.7542 1949,-78.7542 "/>
<text text-anchor="middle" x="1987" y="-57.0542" font-family="Times,serif" font-size="14.00">L1SPFilter</text>
<polyline fill="none" stroke="black" points="2025,-42.7542 2025,-78.7542 "/>
<text text-anchor="middle" x="2036.5" y="-57.0542" font-family="Times,serif" font-size="14.00">0</text>
</g>
<!-- ChannelSelector&#45;&gt;L1SPFilter -->
<g id="edge12" class="edge"><title>ChannelSelector:out0&#45;&gt;L1SPFilter:in0</title>
<path fill="none" stroke="black" d="M1890,-62.7542C1902.02,-62.7542 1907.25,-61.6292 1915.87,-61.0667"/>
<polygon fill="black" stroke="black" points="1916.11,-64.5609 1926,-60.7542 1915.9,-57.5642 1916.11,-64.5609"/>
</g>
<!-- DumpFrames -->
<g id="node2" class="node"><title>DumpFrames</title>
<polygon fill="none" stroke="black" points="2447,-18.7542 2447,-54.7542 2562,-54.7542 2562,-18.7542 2447,-18.7542"/>
<text text-anchor="middle" x="2458.5" y="-33.0542" font-family="Times,serif" font-size="14.00">0</text>
<polyline fill="none" stroke="black" points="2470,-18.7542 2470,-54.7542 "/>
<text text-anchor="middle" x="2516" y="-33.0542" font-family="Times,serif" font-size="14.00">DumpFrames</text>
</g>
<!-- FrameMerger_l1merge -->
<g id="node3" class="node"><title>FrameMerger_l1merge</title>
<polygon fill="none" stroke="black" points="2084,-13.7542 2084,-59.7542 2222,-59.7542 2222,-13.7542 2084,-13.7542"/>
<text text-anchor="middle" x="2095.5" y="-44.5542" font-family="Times,serif" font-size="14.00">0</text>
<polyline fill="none" stroke="black" points="2084,-36.7542 2107,-36.7542 "/>
<text text-anchor="middle" x="2095.5" y="-21.5542" font-family="Times,serif" font-size="14.00">1</text>
<polyline fill="none" stroke="black" points="2107,-13.7542 2107,-59.7542 "/>
<text text-anchor="middle" x="2153" y="-40.5542" font-family="Times,serif" font-size="14.00">FrameMerger</text>
<text text-anchor="middle" x="2153" y="-25.5542" font-family="Times,serif" font-size="14.00">l1merge</text>
<polyline fill="none" stroke="black" points="2199,-13.7542 2199,-59.7542 "/>
<text text-anchor="middle" x="2210.5" y="-33.0542" font-family="Times,serif" font-size="14.00">0</text>
</g>
<!-- wclsFrameSaver_spsaver -->
<g id="node12" class="node"><title>wclsFrameSaver_spsaver</title>
<polygon fill="none" stroke="black" points="2258,-17.7542 2258,-55.7542 2411,-55.7542 2411,-17.7542 2258,-17.7542"/>
<text text-anchor="middle" x="2269.5" y="-33.0542" font-family="Times,serif" font-size="14.00">0</text>
<polyline fill="none" stroke="black" points="2281,-17.7542 2281,-55.7542 "/>
<text text-anchor="middle" x="2334.5" y="-40.5542" font-family="Times,serif" font-size="14.00">wclsFrameSaver</text>
<text text-anchor="middle" x="2334.5" y="-25.5542" font-family="Times,serif" font-size="14.00">spsaver</text>
<polyline fill="none" stroke="black" points="2388,-17.7542 2388,-55.7542 "/>
<text text-anchor="middle" x="2399.5" y="-33.0542" font-family="Times,serif" font-size="14.00">0</text>
</g>
<!-- FrameMerger_l1merge&#45;&gt;wclsFrameSaver_spsaver -->
<g id="edge14" class="edge"><title>FrameMerger_l1merge:out0&#45;&gt;wclsFrameSaver_spsaver:in0</title>
<path fill="none" stroke="black" d="M2222,-36.7542C2234,-36.7542 2239.25,-36.7542 2247.88,-36.7542"/>
<polygon fill="black" stroke="black" points="2248,-40.2543 2258,-36.7542 2248,-33.2543 2248,-40.2543"/>
</g>
<!-- FrameMerger_rawsigmerge -->
<g id="node4" class="node"><title>FrameMerger_rawsigmerge</title>
<polygon fill="none" stroke="black" points="1564,-41.7542 1564,-87.7542 1702,-87.7542 1702,-41.7542 1564,-41.7542"/>
<text text-anchor="middle" x="1575.5" y="-72.5542" font-family="Times,serif" font-size="14.00">0</text>
<polyline fill="none" stroke="black" points="1564,-64.7542 1587,-64.7542 "/>
<text text-anchor="middle" x="1575.5" y="-49.5542" font-family="Times,serif" font-size="14.00">1</text>
<polyline fill="none" stroke="black" points="1587,-41.7542 1587,-87.7542 "/>
<text text-anchor="middle" x="1633" y="-68.5542" font-family="Times,serif" font-size="14.00">FrameMerger</text>
<text text-anchor="middle" x="1633" y="-53.5542" font-family="Times,serif" font-size="14.00">rawsigmerge</text>
<polyline fill="none" stroke="black" points="1679,-41.7542 1679,-87.7542 "/>
<text text-anchor="middle" x="1690.5" y="-61.0542" font-family="Times,serif" font-size="14.00">0</text>
</g>
<!-- FrameMerger_rawsigmerge&#45;&gt;ChannelSelector -->
<g id="edge11" class="edge"><title>FrameMerger_rawsigmerge:out0&#45;&gt;ChannelSelector:in0</title>
<path fill="none" stroke="black" d="M1702,-64.7542C1714.02,-64.7542 1719.25,-63.6292 1727.87,-63.0667"/>
<polygon fill="black" stroke="black" points="1728.11,-66.5609 1738,-62.7542 1727.9,-59.5642 1728.11,-66.5609"/>
</g>
<!-- FrameSplitter_rawsplitter -->
<g id="node5" class="node"><title>FrameSplitter_rawsplitter</title>
<polygon fill="none" stroke="black" points="835,-12.7542 835,-58.7542 973,-58.7542 973,-12.7542 835,-12.7542"/>
<text text-anchor="middle" x="846.5" y="-32.0542" font-family="Times,serif" font-size="14.00">0</text>
<polyline fill="none" stroke="black" points="858,-12.7542 858,-58.7542 "/>
<text text-anchor="middle" x="904" y="-39.5542" font-family="Times,serif" font-size="14.00">FrameSplitter</text>
<text text-anchor="middle" x="904" y="-24.5542" font-family="Times,serif" font-size="14.00">rawsplitter</text>
<polyline fill="none" stroke="black" points="950,-12.7542 950,-58.7542 "/>
<text text-anchor="middle" x="961.5" y="-43.5542" font-family="Times,serif" font-size="14.00">0</text>
<polyline fill="none" stroke="black" points="950,-35.7542 973,-35.7542 "/>
<text text-anchor="middle" x="961.5" y="-20.5542" font-family="Times,serif" font-size="14.00">1</text>
</g>
<!-- FrameSplitter_rawsplitter&#45;&gt;FrameMerger_rawsigmerge -->
<g id="edge5" class="edge"><title>FrameSplitter_rawsplitter:out1&#45;&gt;FrameMerger_rawsigmerge:in1</title>
<path fill="none" stroke="black" d="M973,-23.7542C1219.69,-23.7542 1290.33,34.3421 1528,-31.7542 1541.94,-35.6315 1544.77,-46.2679 1554.17,-50.7358"/>
<polygon fill="black" stroke="black" points="1553.5,-54.1717 1564,-52.7542 1554.91,-47.3147 1553.5,-54.1717"/>
</g>
<!-- OmnibusSigProc -->
<g id="node10" class="node"><title>OmnibusSigProc</title>
<polygon fill="none" stroke="black" points="1009,-41.7542 1009,-77.7542 1165,-77.7542 1165,-41.7542 1009,-41.7542"/>
<text text-anchor="middle" x="1020.5" y="-56.0542" font-family="Times,serif" font-size="14.00">0</text>
<polyline fill="none" stroke="black" points="1032,-41.7542 1032,-77.7542 "/>
<text text-anchor="middle" x="1087" y="-56.0542" font-family="Times,serif" font-size="14.00">OmnibusSigProc</text>
<polyline fill="none" stroke="black" points="1142,-41.7542 1142,-77.7542 "/>
<text text-anchor="middle" x="1153.5" y="-56.0542" font-family="Times,serif" font-size="14.00">0</text>
</g>
<!-- FrameSplitter_rawsplitter&#45;&gt;OmnibusSigProc -->
<g id="edge6" class="edge"><title>FrameSplitter_rawsplitter:out0&#45;&gt;OmnibusSigProc:in0</title>
<path fill="none" stroke="black" d="M973,-47.7542C985.781,-47.7542 990.179,-54.6455 998.9,-57.9836"/>
<polygon fill="black" stroke="black" points="998.546,-61.4748 1009,-59.7542 999.755,-54.5799 998.546,-61.4748"/>
</g>
<!-- FrameSplitter_sigsplitter -->
<g id="node6" class="node"><title>FrameSplitter_sigsplitter</title>
<polygon fill="none" stroke="black" points="1390,-41.7542 1390,-87.7542 1528,-87.7542 1528,-41.7542 1390,-41.7542"/>
<text text-anchor="middle" x="1401.5" y="-61.0542" font-family="Times,serif" font-size="14.00">0</text>
<polyline fill="none" stroke="black" points="1413,-41.7542 1413,-87.7542 "/>
<text text-anchor="middle" x="1459" y="-68.5542" font-family="Times,serif" font-size="14.00">FrameSplitter</text>
<text text-anchor="middle" x="1459" y="-53.5542" font-family="Times,serif" font-size="14.00">sigsplitter</text>
<polyline fill="none" stroke="black" points="1505,-41.7542 1505,-87.7542 "/>
<text text-anchor="middle" x="1516.5" y="-72.5542" font-family="Times,serif" font-size="14.00">0</text>
<polyline fill="none" stroke="black" points="1505,-64.7542 1528,-64.7542 "/>
<text text-anchor="middle" x="1516.5" y="-49.5542" font-family="Times,serif" font-size="14.00">1</text>
</g>
<!-- FrameSplitter_sigsplitter&#45;&gt;FrameMerger_l1merge -->
<g id="edge9" class="edge"><title>FrameSplitter_sigsplitter:out1&#45;&gt;FrameMerger_l1merge:in1</title>
<path fill="none" stroke="black" d="M1528,-52.7542C1546.52,-52.7542 1546.15,-36.7086 1564,-31.7542 1783.45,29.1614 1850.9,-23.1731 2073.95,-24.7194"/>
<polygon fill="black" stroke="black" points="2073.99,-28.2195 2084,-24.7542 2074.01,-21.2195 2073.99,-28.2195"/>
</g>
<!-- FrameSplitter_sigsplitter&#45;&gt;FrameMerger_rawsigmerge -->
<g id="edge10" class="edge"><title>FrameSplitter_sigsplitter:out0&#45;&gt;FrameMerger_rawsigmerge:in0</title>
<path fill="none" stroke="black" d="M1528,-76.7542C1540,-76.7542 1545.25,-76.7542 1553.88,-76.7542"/>
<polygon fill="black" stroke="black" points="1554,-80.2543 1564,-76.7542 1554,-73.2543 1554,-80.2543"/>
</g>
<!-- L1SPFilter&#45;&gt;FrameMerger_l1merge -->
<g id="edge13" class="edge"><title>L1SPFilter:out0&#45;&gt;FrameMerger_l1merge:in0</title>
<path fill="none" stroke="black" d="M2048,-60.7542C2060.78,-60.7542 2065.18,-53.8628 2073.9,-50.5248"/>
<polygon fill="black" stroke="black" points="2074.75,-53.9285 2084,-48.7542 2073.55,-47.0336 2074.75,-53.9285"/>
</g>
<!-- OmnibusNoiseFilter -->
<g id="node8" class="node"><title>OmnibusNoiseFilter</title>
<polygon fill="none" stroke="black" points="198,-17.7542 198,-53.7542 372,-53.7542 372,-17.7542 198,-17.7542"/>
<text text-anchor="middle" x="209.5" y="-32.0542" font-family="Times,serif" font-size="14.00">0</text>
<polyline fill="none" stroke="black" points="221,-17.7542 221,-53.7542 "/>
<text text-anchor="middle" x="285" y="-32.0542" font-family="Times,serif" font-size="14.00">OmnibusNoiseFilter</text>
<polyline fill="none" stroke="black" points="349,-17.7542 349,-53.7542 "/>
<text text-anchor="middle" x="360.5" y="-32.0542" font-family="Times,serif" font-size="14.00">0</text>
</g>
<!-- OmnibusPMTNoiseFilter -->
<g id="node9" class="node"><title>OmnibusPMTNoiseFilter</title>
<polygon fill="none" stroke="black" points="408,-17.7542 408,-53.7542 610,-53.7542 610,-17.7542 408,-17.7542"/>
<text text-anchor="middle" x="419.5" y="-32.0542" font-family="Times,serif" font-size="14.00">0</text>
<polyline fill="none" stroke="black" points="431,-17.7542 431,-53.7542 "/>
<text text-anchor="middle" x="509" y="-32.0542" font-family="Times,serif" font-size="14.00">OmnibusPMTNoiseFilter</text>
<polyline fill="none" stroke="black" points="587,-17.7542 587,-53.7542 "/>
<text text-anchor="middle" x="598.5" y="-32.0542" font-family="Times,serif" font-size="14.00">0</text>
</g>
<!-- OmnibusNoiseFilter&#45;&gt;OmnibusPMTNoiseFilter -->
<g id="edge2" class="edge"><title>OmnibusNoiseFilter:out0&#45;&gt;OmnibusPMTNoiseFilter:in0</title>
<path fill="none" stroke="black" d="M372,-35.7542C384,-35.7542 389.25,-35.7542 397.875,-35.7542"/>
<polygon fill="black" stroke="black" points="398,-39.2543 408,-35.7542 398,-32.2543 398,-39.2543"/>
</g>
<!-- wclsFrameSaver_nfsaver -->
<g id="node11" class="node"><title>wclsFrameSaver_nfsaver</title>
<polygon fill="none" stroke="black" points="646,-16.7542 646,-54.7542 799,-54.7542 799,-16.7542 646,-16.7542"/>
<text text-anchor="middle" x="657.5" y="-32.0542" font-family="Times,serif" font-size="14.00">0</text>
<polyline fill="none" stroke="black" points="669,-16.7542 669,-54.7542 "/>
<text text-anchor="middle" x="722.5" y="-39.5542" font-family="Times,serif" font-size="14.00">wclsFrameSaver</text>
<text text-anchor="middle" x="722.5" y="-24.5542" font-family="Times,serif" font-size="14.00">nfsaver</text>
<polyline fill="none" stroke="black" points="776,-16.7542 776,-54.7542 "/>
<text text-anchor="middle" x="787.5" y="-32.0542" font-family="Times,serif" font-size="14.00">0</text>
</g>
<!-- OmnibusPMTNoiseFilter&#45;&gt;wclsFrameSaver_nfsaver -->
<g id="edge3" class="edge"><title>OmnibusPMTNoiseFilter:out0&#45;&gt;wclsFrameSaver_nfsaver:in0</title>
<path fill="none" stroke="black" d="M610,-35.7542C622,-35.7542 627.25,-35.7542 635.875,-35.7542"/>
<polygon fill="black" stroke="black" points="636,-39.2543 646,-35.7542 636,-32.2543 636,-39.2543"/>
</g>
<!-- wclsFrameSaver_thsaver -->
<g id="node13" class="node"><title>wclsFrameSaver_thsaver</title>
<polygon fill="none" stroke="black" points="1201,-43.7542 1201,-81.7542 1354,-81.7542 1354,-43.7542 1201,-43.7542"/>
<text text-anchor="middle" x="1212.5" y="-59.0542" font-family="Times,serif" font-size="14.00">0</text>
<polyline fill="none" stroke="black" points="1224,-43.7542 1224,-81.7542 "/>
<text text-anchor="middle" x="1277.5" y="-66.5542" font-family="Times,serif" font-size="14.00">wclsFrameSaver</text>
<text text-anchor="middle" x="1277.5" y="-51.5542" font-family="Times,serif" font-size="14.00">thsaver</text>
<polyline fill="none" stroke="black" points="1331,-43.7542 1331,-81.7542 "/>
<text text-anchor="middle" x="1342.5" y="-59.0542" font-family="Times,serif" font-size="14.00">0</text>
</g>
<!-- OmnibusSigProc&#45;&gt;wclsFrameSaver_thsaver -->
<g id="edge7" class="edge"><title>OmnibusSigProc:out0&#45;&gt;wclsFrameSaver_thsaver:in0</title>
<path fill="none" stroke="black" d="M1165,-59.7542C1177.04,-59.7542 1182.24,-61.4417 1190.86,-62.2854"/>
<polygon fill="black" stroke="black" points="1190.85,-65.7886 1201,-62.7542 1191.17,-58.7961 1190.85,-65.7886"/>
</g>
<!-- wclsFrameSaver_nfsaver&#45;&gt;FrameSplitter_rawsplitter -->
<g id="edge4" class="edge"><title>wclsFrameSaver_nfsaver:out0&#45;&gt;FrameSplitter_rawsplitter:in0</title>
<path fill="none" stroke="black" d="M799,-35.7542C811,-35.7542 816.25,-35.7542 824.875,-35.7542"/>
<polygon fill="black" stroke="black" points="825,-39.2543 835,-35.7542 825,-32.2543 825,-39.2543"/>
</g>
<!-- wclsFrameSaver_spsaver&#45;&gt;DumpFrames -->
<g id="edge15" class="edge"><title>wclsFrameSaver_spsaver:out0&#45;&gt;DumpFrames:in0</title>
<path fill="none" stroke="black" d="M2411,-36.7542C2423,-36.7542 2428.25,-36.7542 2436.88,-36.7542"/>
<polygon fill="black" stroke="black" points="2437,-40.2543 2447,-36.7542 2437,-33.2543 2437,-40.2543"/>
</g>
<!-- wclsFrameSaver_thsaver&#45;&gt;FrameSplitter_sigsplitter -->
<g id="edge8" class="edge"><title>wclsFrameSaver_thsaver:out0&#45;&gt;FrameSplitter_sigsplitter:in0</title>
<path fill="none" stroke="black" d="M1354,-62.7542C1366.02,-62.7542 1371.25,-63.8792 1379.87,-64.4417"/>
<polygon fill="black" stroke="black" points="1379.9,-67.9441 1390,-64.7542 1380.11,-60.9475 1379.9,-67.9441"/>
</g>
<!-- wclsRawFrameSource -->
<g id="node14" class="node"><title>wclsRawFrameSource</title>
<polygon fill="none" stroke="black" points="0,-17.7542 0,-53.7542 162,-53.7542 162,-17.7542 0,-17.7542"/>
<text text-anchor="middle" x="69.5" y="-32.0542" font-family="Times,serif" font-size="14.00">wclsRawFrameSource</text>
<polyline fill="none" stroke="black" points="139,-17.7542 139,-53.7542 "/>
<text text-anchor="middle" x="150.5" y="-32.0542" font-family="Times,serif" font-size="14.00">0</text>
</g>
<!-- wclsRawFrameSource&#45;&gt;OmnibusNoiseFilter -->
<g id="edge1" class="edge"><title>wclsRawFrameSource:out0&#45;&gt;OmnibusNoiseFilter:in0</title>
<path fill="none" stroke="black" d="M162,-35.7542C174,-35.7542 179.25,-35.7542 187.875,-35.7542"/>
<polygon fill="black" stroke="black" points="188,-39.2543 198,-35.7542 188,-32.2543 188,-39.2543"/>
</g>
</g>
</svg>
